<svg xmlns="http://www.w3.org/2000/svg" width="95" height="29" viewBox="0 0 95 29">
    <g fill="none" fill-rule="evenodd">
        <g fill-rule="nonzero">
            <g>
                <g>
                    <path fill="#0A0912" d="M91 0H3.5C1.567 0 0 1.567 0 3.5v21C0 26.433 1.567 28 3.5 28H91c1.933 0 3.5-1.567 3.5-3.5v-21C94.5 1.567 92.933 0 91 0z" transform="translate(-40 -84) translate(40 38.248) translate(0 46)"/>
                    <path fill="#A6A6A6" d="M91 .56c.78 0 1.528.31 2.079.861.551.551.861 1.3.861 2.079v21c0 .78-.31 1.528-.861 2.079-.551.551-1.3.861-2.079.861H3.5c-.78 0-1.528-.31-2.079-.861C.87 26.028.56 25.279.56 24.5v-21c0-.78.31-1.528.861-2.079C1.972.87 2.721.56 3.5.56H91zM91 0H3.5c-.928 0-1.818.369-2.475 1.025C.37 1.682 0 2.572 0 3.5v21c0 .928.369 1.819 1.025 2.475C1.682 27.63 2.572 28 3.5 28H91c.928 0 1.819-.369 2.475-1.025.656-.656 1.025-1.547 1.025-2.475v-21c0-.928-.369-1.818-1.025-2.475C92.819.37 91.928 0 91 0z" transform="translate(-40 -84) translate(40 38.248) translate(0 46)"/>
                    <path fill="#FFF" d="M22.479 13.52c-.02-2.15 1.76-3.196 1.841-3.245-1.007-1.47-2.57-1.67-3.118-1.686-1.312-.138-2.585.785-3.253.785-.682 0-1.71-.772-2.82-.75-1.427.023-2.762.85-3.495 2.133-1.511 2.616-.384 6.461 1.064 8.576.724 1.036 1.57 2.192 2.679 2.152 1.083-.045 1.488-.691 2.796-.691 1.296 0 1.676.69 2.806.665 1.163-.02 1.896-1.04 2.595-2.086.837-1.187 1.173-2.356 1.186-2.416-.027-.01-2.259-.861-2.281-3.438zM20.345 7.198c.583-.73.982-1.721.87-2.728-.843.038-1.898.584-2.506 1.297-.537.628-1.017 1.658-.893 2.626.947.071 1.92-.478 2.529-1.195zM38.164 21.336h-1.515l-.83-2.607h-2.883l-.79 2.607H30.67l2.858-8.876h1.765l2.87 8.876zm-2.595-3.701l-.75-2.318c-.08-.237-.228-.794-.448-1.672h-.026c-.088.378-.228.935-.422 1.672l-.737 2.318h2.383zM45.512 18.057c0 1.089-.295 1.949-.883 2.58-.527.563-1.181.844-1.962.844-.843 0-1.449-.303-1.817-.909h-.027v3.372H39.4v-6.901c0-.685-.018-1.387-.053-2.107h1.25l.08 1.014h.027c.474-.764 1.194-1.146 2.16-1.146.754 0 1.385.298 1.89.895.504.598.757 1.384.757 2.358zm-1.45.052c0-.623-.14-1.136-.42-1.54-.308-.422-.72-.633-1.238-.633-.351 0-.67.117-.955.349-.285.233-.472.538-.56.916-.043.176-.065.32-.065.433v1.067c0 .466.142.859.428 1.18.285.32.656.48 1.112.48.536 0 .953-.206 1.25-.619.3-.412.449-.957.449-1.633zM52.873 18.057c0 1.089-.294 1.949-.883 2.58-.526.563-1.18.844-1.961.844-.844 0-1.449-.303-1.817-.909h-.027v3.372h-1.422v-6.901c0-.685-.018-1.387-.053-2.107h1.25l.08 1.014h.027c.474-.764 1.193-1.146 2.16-1.146.754 0 1.384.298 1.89.895.503.598.756 1.384.756 2.358zm-1.449.052c0-.623-.14-1.136-.422-1.54-.307-.422-.719-.633-1.237-.633-.352 0-.67.117-.955.349-.286.233-.471.538-.559.916-.043.176-.066.32-.066.433v1.067c0 .466.143.859.427 1.18.285.32.656.48 1.114.48.535 0 .952-.206 1.25-.619.299-.412.448-.957.448-1.633zM61.103 18.847c0 .755-.262 1.369-.788 1.843-.578.518-1.383.777-2.418.777-.955 0-1.72-.184-2.3-.553l.33-1.185c.624.378 1.309.567 2.055.567.536 0 .952-.121 1.252-.363.298-.241.447-.565.447-.97 0-.36-.123-.663-.37-.91-.244-.245-.653-.474-1.224-.686-1.554-.58-2.33-1.428-2.33-2.545 0-.73.272-1.328.817-1.793.543-.466 1.267-.7 2.173-.7.808 0 1.479.142 2.014.422l-.355 1.16c-.5-.273-1.066-.409-1.699-.409-.5 0-.89.124-1.17.37-.238.219-.357.486-.357.803 0 .35.136.64.408.869.237.21.667.439 1.291.685.764.307 1.325.667 1.685 1.08.36.41.54.924.54 1.538zM65.805 16.003h-1.567v3.107c0 .79.276 1.185.83 1.185.253 0 .464-.022.63-.066l.04 1.08c-.28.105-.649.158-1.106.158-.561 0-1-.172-1.317-.514-.315-.343-.474-.918-.474-1.725V16h-.934v-1.067h.934v-1.172l1.397-.421v1.593h1.567v1.069zM72.877 18.083c0 .984-.282 1.792-.843 2.423-.59.65-1.371.975-2.346.975-.938 0-1.686-.312-2.244-.935-.557-.623-.836-1.41-.836-2.357 0-.992.287-1.804.862-2.436.574-.632 1.35-.948 2.324-.948.94 0 1.695.311 2.265.935.545.605.818 1.386.818 2.343zm-1.476.046c0-.59-.126-1.096-.381-1.519-.298-.51-.725-.765-1.277-.765-.571 0-1.006.255-1.304.765-.255.423-.381.938-.381 1.546 0 .59.126 1.096.381 1.518.308.51.737.766 1.292.766.542 0 .969-.26 1.276-.78.262-.43.394-.941.394-1.53zM77.499 16.186c-.141-.026-.291-.04-.449-.04-.5 0-.886.19-1.159.568-.236.333-.355.755-.355 1.264v3.358h-1.422l.014-4.385c0-.737-.018-1.41-.054-2.015h1.239l.052 1.225h.04c.15-.421.386-.76.71-1.014.317-.229.66-.343 1.028-.343.131 0 .25.01.356.026v1.356zM83.858 17.833c0 .255-.016.47-.052.645H79.54c.017.632.223 1.116.62 1.45.359.297.823.447 1.394.447.632 0 1.208-.1 1.726-.303l.223.987c-.606.264-1.32.396-2.145.396-.993 0-1.772-.293-2.339-.876-.565-.584-.849-1.367-.849-2.35 0-.966.264-1.77.791-2.41.552-.685 1.299-1.027 2.238-1.027.922 0 1.62.342 2.095 1.027.375.543.564 1.216.564 2.014zm-1.356-.369c.01-.421-.083-.786-.276-1.093-.246-.396-.624-.593-1.133-.593-.465 0-.843.193-1.132.58-.237.307-.378.676-.42 1.105h2.961v.001zM35.1 7c0 .785-.236 1.376-.706 1.772-.436.367-1.055.55-1.856.55-.398 0-.738-.017-1.023-.052V4.98c.372-.06.772-.09 1.204-.09.764 0 1.34.166 1.727.498.435.376.653.913.653 1.612zm-.738.019c0-.509-.134-.9-.404-1.171-.27-.272-.663-.408-1.181-.408-.22 0-.408.015-.563.046v3.26c.086.014.243.02.472.02.535 0 .948-.15 1.239-.447.29-.297.437-.73.437-1.3zM39.007 7.685c0 .484-.138.88-.414 1.19-.29.32-.673.48-1.152.48-.461 0-.829-.153-1.103-.46-.274-.306-.41-.692-.41-1.158 0-.487.14-.886.423-1.196.283-.31.663-.466 1.142-.466.462 0 .832.153 1.113.459.267.297.401.682.401 1.151zm-.725.023c0-.29-.063-.54-.187-.747-.147-.25-.356-.376-.627-.376-.281 0-.494.126-.641.377-.126.207-.188.46-.188.759 0 .29.063.538.188.746.151.25.362.376.634.376.267 0 .476-.127.627-.383.13-.211.194-.462.194-.752zM44.247 6.14l-.984 3.143h-.64l-.408-1.365c-.103-.34-.187-.68-.252-1.016h-.013c-.06.346-.145.684-.253 1.016l-.433 1.365h-.647L39.69 6.14h.719l.355 1.495c.086.353.157.69.214 1.009h.012c.052-.263.138-.598.26-1.003l.446-1.5h.57l.427 1.468c.104.359.188.703.252 1.036h.02c.047-.324.118-.669.213-1.036l.382-1.468h.686zM47.87 9.283h-.699v-1.8c0-.556-.21-.833-.633-.833-.208 0-.375.076-.505.229-.129.153-.194.333-.194.539v1.864h-.7V7.037c0-.276-.008-.575-.024-.9h.614l.033.492h.019c.081-.152.202-.278.362-.38.19-.117.401-.176.634-.176.293 0 .537.095.731.285.242.233.362.58.362 1.042v1.883zM49.798 9.283L49.1 9.283 49.1 4.696 49.798 4.696zM53.913 7.685c0 .484-.138.88-.414 1.19-.29.32-.674.48-1.152.48-.462 0-.83-.153-1.103-.46-.273-.306-.41-.692-.41-1.158 0-.487.14-.886.423-1.196.283-.31.663-.466 1.142-.466.462 0 .832.153 1.113.459.267.297.401.682.401 1.151zm-.726.023c0-.29-.062-.54-.187-.747-.146-.25-.356-.376-.626-.376-.282 0-.495.126-.641.377-.125.207-.188.46-.188.759 0 .29.063.538.188.746.151.25.362.376.634.376.267 0 .476-.127.627-.383.13-.211.193-.462.193-.752zM57.296 9.283h-.628l-.052-.362h-.02c-.214.289-.52.434-.918.434-.296 0-.536-.096-.717-.285-.164-.172-.246-.386-.246-.64 0-.385.16-.677.482-.88.321-.203.774-.302 1.356-.298v-.058c0-.415-.217-.621-.653-.621-.31 0-.584.078-.82.232l-.142-.458c.292-.181.653-.272 1.079-.272.821 0 1.233.434 1.233 1.3v1.159c0 .314.016.564.046.75zm-.726-1.08v-.485c-.77-.013-1.156.198-1.156.633 0 .164.044.287.134.37.09.081.204.122.341.122.154 0 .297-.049.428-.145.131-.098.212-.221.242-.373.007-.034.011-.075.011-.122zM61.267 9.283h-.62l-.032-.505h-.02c-.198.384-.535.577-1.01.577-.379 0-.694-.15-.944-.447-.25-.297-.375-.683-.375-1.157 0-.51.135-.922.408-1.236.263-.294.586-.44.97-.44.423 0 .718.141.886.426h.013V4.696h.7v3.74c0 .306.008.588.024.847zm-.724-1.326v-.524c0-.09-.007-.164-.02-.22-.039-.168-.123-.31-.252-.424-.13-.114-.287-.171-.467-.171-.261 0-.465.103-.616.31-.148.208-.224.473-.224.796 0 .311.072.563.215.758.152.206.356.31.611.31.23 0 .413-.086.553-.26.134-.159.2-.35.2-.575zM67.246 7.685c0 .484-.138.88-.414 1.19-.29.32-.673.48-1.152.48-.461 0-.829-.153-1.103-.46-.274-.306-.41-.692-.41-1.158 0-.487.14-.886.423-1.196.282-.31.663-.466 1.143-.466.46 0 .832.153 1.112.459.267.297.4.682.4 1.151zm-.725.023c0-.29-.062-.54-.187-.747-.147-.25-.356-.376-.628-.376-.28 0-.493.126-.64.377-.126.207-.188.46-.188.759 0 .29.063.538.187.746.152.25.363.376.635.376.267 0 .477-.127.627-.383.13-.211.194-.462.194-.752zM71.004 9.283h-.698v-1.8c0-.556-.211-.833-.635-.833-.207 0-.375.076-.504.229-.13.153-.194.333-.194.539v1.864h-.7V7.037c0-.276-.008-.575-.024-.9h.614l.032.492h.02c.081-.152.203-.278.361-.38.19-.117.402-.176.635-.176.292 0 .537.095.73.285.243.233.363.58.363 1.042v1.883zM75.708 6.663h-.77V8.19c0 .388.137.582.408.582.125 0 .23-.01.311-.032l.018.53c-.138.052-.32.078-.543.078-.276 0-.49-.084-.646-.252-.156-.168-.234-.451-.234-.848V6.663h-.459v-.524h.46v-.576l.685-.207v.782h.77v.525zM79.408 9.283h-.7V7.496c0-.564-.21-.846-.632-.846-.324 0-.546.163-.667.49-.02.069-.033.153-.033.252v1.89h-.698V4.697h.698v1.895h.014c.22-.345.535-.517.944-.517.29 0 .529.095.72.285.236.237.354.59.354 1.055v1.87zM83.226 7.562c0 .126-.01.231-.026.317h-2.097c.01.311.11.548.304.712.177.147.406.22.686.22.31 0 .593-.05.848-.149l.11.486c-.299.13-.65.194-1.056.194-.487 0-.87-.144-1.148-.43-.279-.287-.417-.672-.417-1.155 0-.474.13-.869.388-1.184.271-.336.638-.504 1.1-.504.452 0 .795.168 1.028.504.187.267.28.597.28.99zm-.668-.18c.006-.208-.04-.387-.135-.537-.12-.194-.306-.292-.556-.292-.228 0-.414.095-.556.285-.116.151-.185.332-.208.544h1.455z" transform="translate(-40 -84) translate(40 38.248) translate(0 46)"/>
                </g>
            </g>
        </g>
    </g>
</svg>
