<svg xmlns="http://www.w3.org/2000/svg" width="96" height="29" viewBox="0 0 96 29">
    <defs>
        <linearGradient id="7m5gpiejsa" x1="61.034%" x2="26.503%" y1="4.948%" y2="71.907%">
            <stop offset="0%" stop-color="#00A0FF"/>
            <stop offset="1%" stop-color="#00A1FF"/>
            <stop offset="26%" stop-color="#00BEFF"/>
            <stop offset="51%" stop-color="#00D2FF"/>
            <stop offset="76%" stop-color="#00DFFF"/>
            <stop offset="100%" stop-color="#00E3FF"/>
        </linearGradient>
        <linearGradient id="3ovpc5bdnb" x1="107.685%" x2="-130.64%" y1="50%" y2="50%">
            <stop offset="0%" stop-color="#FFE000"/>
            <stop offset="41%" stop-color="#FFBD00"/>
            <stop offset="78%" stop-color="orange"/>
            <stop offset="100%" stop-color="#FA8140"/>
        </linearGradient>
        <linearGradient id="xitwerxhsc" x1="86.219%" x2="-50.15%" y1="30.911%" y2="135.988%">
            <stop offset="0%" stop-color="#FA407F"/>
            <stop offset="100%" stop-color="#FA407F"/>
        </linearGradient>
        <linearGradient id="ai4kv9i6sd" x1="-18.754%" x2="42.121%" y1="-11.832%" y2="35.095%">
            <stop offset="0%" stop-color="#32A071"/>
            <stop offset="7%" stop-color="#2DA771"/>
            <stop offset="48%" stop-color="#15CF74"/>
            <stop offset="80%" stop-color="#06E775"/>
            <stop offset="100%" stop-color="#00F076"/>
        </linearGradient>
    </defs>
    <g fill="none" fill-rule="evenodd">
        <g>
            <g>
                <g>
                    <g>
                        <path fill="#0A0912" fill-rule="nonzero" d="M91 0H3.5C1.567 0 0 1.567 0 3.5v21C0 26.433 1.567 28 3.5 28H91c1.933 0 3.5-1.567 3.5-3.5v-21C94.5 1.567 92.933 0 91 0z" transform="translate(-140 -84) translate(40 38.248) translate(0 46) translate(100.333)"/>
                        <path fill="#A6A6A6" fill-rule="nonzero" d="M91 .56c.78 0 1.528.31 2.079.861.551.551.861 1.3.861 2.079v21c0 .78-.31 1.528-.861 2.079-.551.551-1.3.861-2.079.861H3.5c-.78 0-1.528-.31-2.079-.861C.87 26.028.56 25.279.56 24.5v-21c0-.78.31-1.528.861-2.079C1.972.87 2.721.56 3.5.56H91zM91 0H3.5c-.928 0-1.818.369-2.475 1.025C.37 1.682 0 2.572 0 3.5v21c0 .928.369 1.819 1.025 2.475C1.682 27.63 2.572 28 3.5 28H91c.928 0 1.819-.369 2.475-1.025.656-.656 1.025-1.547 1.025-2.475v-21c0-.928-.369-1.818-1.025-2.475C92.819.37 91.928 0 91 0z" transform="translate(-140 -84) translate(40 38.248) translate(0 46) translate(100.333)"/>
                        <path fill="#FFF" fill-rule="nonzero" d="M47.698 15.225c-.588.003-1.162.18-1.649.508-.487.329-.867.794-1.09 1.338-.222.544-.28 1.142-.163 1.718.116.576.4 1.105.817 1.52.417.414.947.696 1.524.81.576.113 1.174.054 1.717-.172.542-.225 1.006-.607 1.333-1.096.326-.489.5-1.063.5-1.651.006-.393-.068-.784-.216-1.148-.148-.365-.369-.696-.648-.973-.278-.278-.61-.497-.976-.643-.365-.147-.756-.219-1.149-.211zm0 4.781c-.361.025-.722-.059-1.035-.241-.313-.183-.564-.455-.72-.782-.157-.327-.211-.693-.156-1.052.055-.358.216-.691.463-.957.247-.265.567-.45.92-.53.354-.081.724-.053 1.06.079.338.132.628.363.833.662.204.299.314.653.315 1.015.011.23-.024.46-.102.675-.08.216-.2.414-.357.582-.157.169-.346.304-.555.398-.21.094-.436.146-.666.151zm-6.517-4.781c-.588.001-1.163.177-1.65.505-.49.327-.87.793-1.094 1.336-.224.544-.282 1.142-.166 1.719.116.576.4 1.106.816 1.521.416.415.946.698 1.523.812.577.115 1.175.055 1.718-.17.543-.226 1.008-.607 1.334-1.096.327-.489.501-1.064.501-1.652.006-.393-.068-.784-.216-1.148-.148-.365-.369-.696-.648-.973-.278-.278-.61-.497-.976-.643-.365-.147-.756-.219-1.149-.211h.007zm0 4.781c-.362.027-.723-.056-1.037-.238-.314-.181-.566-.453-.723-.78-.158-.327-.213-.693-.159-1.052.054-.358.215-.692.461-.958.247-.266.567-.452.92-.533.354-.081.724-.054 1.062.078.338.131.628.362.833.661.205.3.315.653.316 1.016.011.23-.024.46-.102.675-.08.216-.2.414-.357.582-.157.169-.345.304-.555.398-.21.094-.436.146-.666.151h.007zm-7.763-3.864v1.26h3.024c-.047.593-.294 1.153-.7 1.589-.303.308-.666.55-1.068.709-.401.159-.831.232-1.263.215-.891 0-1.746-.354-2.376-.984-.63-.63-.984-1.485-.984-2.376 0-.891.354-1.746.984-2.376.63-.63 1.485-.984 2.376-.984.852-.014 1.676.31 2.289.903l.889-.889c-.414-.42-.908-.751-1.453-.976-.544-.225-1.129-.338-1.718-.333-.622-.024-1.243.077-1.825.299-.582.221-1.114.558-1.562.99-.45.431-.806.95-1.05 1.522-.244.573-.37 1.19-.37 1.812 0 .623.126 1.24.37 1.813s.6 1.09 1.05 1.522c.448.432.98.769 1.562.99.582.222 1.203.323 1.825.299.6.027 1.197-.075 1.754-.298.556-.223 1.059-.563 1.473-.997.733-.806 1.125-1.865 1.092-2.954.002-.265-.021-.53-.07-.791l-4.249.035zm31.717.98c-.182-.537-.524-1.006-.98-1.345-.454-.339-1.001-.531-1.568-.552-.383 0-.762.077-1.113.229-.352.151-.669.373-.931.652-.263.279-.465.608-.595.969-.13.36-.185.743-.161 1.125-.008.391.062.78.207 1.144.145.363.362.693.638.971s.604.497.967.645c.362.148.75.22 1.142.215.49.003.972-.116 1.405-.346.432-.23.8-.563 1.073-.97l-1.015-.7c-.151.253-.366.461-.623.606-.256.145-.546.22-.84.22-.303.012-.603-.068-.86-.23-.257-.16-.46-.395-.582-.673l3.983-1.645-.147-.315zm-4.06.994c-.014-.217.015-.434.086-.639.07-.205.182-.394.326-.556.145-.161.32-.292.516-.385.197-.093.41-.146.626-.156.226-.015.451.037.648.149.196.112.356.28.458.481l-2.66 1.106zM57.841 21h1.309v-8.75h-1.309V21zm-2.142-5.11h-.049c-.197-.22-.439-.397-.71-.518-.27-.12-.562-.182-.858-.182-.765.037-1.486.367-2.015.922-.528.554-.823 1.29-.823 2.057 0 .765.295 1.502.823 2.056.529.555 1.25.885 2.015.922.297.005.59-.055.862-.176.27-.121.512-.3.706-.524h.042v.427c0 1.141-.609 1.75-1.589 1.75-.326-.008-.643-.112-.91-.3-.267-.189-.471-.452-.588-.757l-1.141.476c.215.522.58.969 1.05 1.282.471.313 1.024.478 1.589.475 1.533 0 2.8-.903 2.8-3.101V15.4h-1.204v.49zm-1.498 4.116c-.452-.04-.872-.247-1.178-.582-.306-.334-.476-.77-.476-1.224 0-.453.17-.89.476-1.224.306-.335.726-.542 1.178-.582.224.011.443.068.645.165.202.098.382.235.53.403.148.168.261.365.332.577.072.213.1.437.082.661.02.224-.007.45-.078.664-.071.214-.184.412-.334.58-.149.17-.33.306-.534.403-.204.096-.425.15-.65.159h.007zm17.066-7.756h-3.129V21h1.309v-3.318h1.827c.373.027.748-.024 1.1-.148.353-.124.677-.32.95-.575.274-.255.492-.563.642-.906.15-.343.226-.713.226-1.087s-.077-.744-.226-1.087c-.15-.343-.368-.651-.642-.906-.273-.255-.597-.45-.95-.575-.352-.124-.727-.175-1.1-.148h-.007zm0 4.2H69.44v-2.982h1.855c.398 0 .78.158 1.062.44.281.281.44.663.44 1.062 0 .398-.159.78-.44 1.061-.282.282-.664.44-1.062.44l-.028-.021zm8.071-1.26c-.476-.028-.951.083-1.365.32-.414.238-.75.591-.966 1.017l1.162.483c.115-.211.288-.384.5-.499.21-.114.45-.165.69-.145.166-.02.335-.006.495.04.161.047.31.125.441.23.13.105.239.235.318.382.08.147.13.308.146.475v.091c-.42-.223-.89-.338-1.365-.336-1.253 0-2.52.7-2.52 1.967.012.27.079.535.195.78.117.243.281.461.484.64.202.18.438.317.694.404.256.087.528.12.797.101.33.024.66-.042.955-.19.296-.147.546-.372.725-.65h.042v.7h1.26v-3.367c0-1.533-1.162-2.422-2.653-2.422l-.035-.021zm-.161 4.795c-.427 0-1.022-.217-1.022-.742 0-.7.742-.931 1.4-.931.416-.01.827.091 1.19.294-.044.379-.223.73-.505.987-.282.257-.646.404-1.028.413l-.035-.021zm7.441-4.585l-1.498 3.794h-.042L83.524 15.4h-1.4l2.331 5.306-1.33 2.947h1.365l3.584-8.253h-1.456zM74.851 21h1.309v-8.75h-1.309V21zM33.15 7.212c.012.256-.028.513-.118.754-.09.24-.229.46-.407.646-.198.206-.438.368-.703.475-.266.108-.55.158-.837.148-.434-.004-.857-.135-1.217-.378-.36-.243-.64-.587-.804-.988-.166-.401-.209-.843-.124-1.268.084-.426.292-.817.598-1.125.201-.206.442-.367.708-.476.267-.108.552-.16.84-.154.295-.001.588.058.86.175.254.102.48.263.658.469l-.37.37c-.14-.165-.317-.297-.516-.383-.2-.086-.416-.125-.633-.113-.218-.001-.435.042-.637.126-.201.085-.384.21-.536.367-.152.156-.271.342-.35.546-.079.204-.115.422-.108.64-.004.327.088.647.265.921.177.274.432.49.731.62.3.129.631.167.952.108.321-.058.618-.21.852-.437.216-.234.34-.537.35-.854h-1.519v-.504h2.037c.019.104.028.21.028.315zm3.206-1.75h-1.89v1.33h1.722v.504h-1.722v1.33h1.89v.518h-2.45v-4.2h2.45v.518zm2.296 3.682h-.539V5.462h-1.176v-.518h2.92v.518h-1.205v3.682zm3.262 0v-4.2h.54v4.2h-.54zm2.933 0h-.539V5.462h-1.176v-.518h2.884v.518h-1.169v3.682zm6.636-.546c-.409.407-.963.635-1.54.635-.577 0-1.13-.228-1.54-.635-.397-.421-.62-.979-.62-1.558 0-.579.223-1.136.62-1.557.202-.203.442-.365.706-.475.265-.11.548-.166.834-.166.287 0 .57.056.835.166.264.11.504.272.705.475.4.42.622.978.622 1.557 0 .58-.222 1.138-.622 1.558zm-2.68-.35c.302.302.713.471 1.14.471.428 0 .838-.17 1.141-.471.3-.33.465-.76.465-1.204 0-.445-.166-.875-.465-1.204-.303-.302-.713-.471-1.14-.471-.428 0-.839.169-1.142.47-.299.33-.464.76-.464 1.205 0 .445.165.874.464 1.204zm4.06.896v-4.2h.657l2.044 3.269v-3.27h.54v4.2h-.56l-2.136-3.422v3.423h-.546z" transform="translate(-140 -84) translate(40 38.248) translate(0 46) translate(100.333)"/>
                        <path fill="#FFF" d="M49.943 4.912c-.277 0-.551.054-.807.16-.255.107-.487.263-.682.46-.385.407-.6.947-.6 1.508s.215 1.101.6 1.509c.395.393.931.614 1.49.614.557 0 1.093-.22 1.49-.614.386-.407.601-.947.601-1.509 0-.561-.215-1.101-.602-1.508-.195-.197-.427-.353-.683-.46-.255-.106-.53-.16-.807-.16zm-.86.032c.272-.114.565-.172.86-.172.296 0 .588.058.861.172.273.113.52.28.73.49.412.434.641 1.009.641 1.606 0 .598-.23 1.173-.641 1.606l-.001.001c-.422.42-.994.656-1.59.656-.595 0-1.167-.236-1.59-.656v-.001c-.41-.434-.64-1.009-.64-1.606 0-.597.23-1.171.64-1.605v-.002c.209-.21.457-.376.73-.49zm-18-.028c-.277-.006-.553.044-.81.15-.257.104-.49.26-.685.459-.296.298-.498.677-.58 1.09-.081.412-.04.839.12 1.227.16.389.431.722.78.957.348.235.758.362 1.178.366h.002c.276.01.551-.039.807-.143.257-.103.488-.26.68-.459.171-.178.304-.39.391-.622.087-.232.126-.479.114-.726l.07-.003h-.07c0-.082-.006-.164-.017-.245h-1.908v.364h1.522l-.003.072c-.01.334-.141.653-.368.9l-.003.002c-.245.237-.554.395-.888.456-.335.061-.68.022-.992-.114-.313-.135-.578-.359-.763-.645-.184-.285-.28-.618-.276-.958-.007-.227.031-.454.113-.666.082-.213.206-.407.365-.57.159-.164.35-.294.56-.382.209-.088.434-.133.662-.132.227-.012.453.028.662.119.186.08.353.198.49.346l.272-.272c-.165-.174-.365-.311-.588-.401h-.001c-.264-.114-.547-.171-.833-.17h-.002zM33.22 7.21c.012.266-.03.531-.123.78-.093.25-.237.478-.421.67-.205.213-.454.381-.728.492-.274.111-.569.163-.864.153-.448-.004-.884-.14-1.255-.39-.37-.25-.66-.605-.83-1.02-.17-.413-.215-.869-.128-1.308.087-.44.302-.843.618-1.16.207-.212.456-.38.731-.492.275-.111.57-.166.866-.16.305 0 .607.061.887.181.263.106.498.274.684.488l.043.05-.471.47-.05-.058c-.132-.158-.3-.283-.489-.365-.19-.082-.395-.119-.6-.107h-.005c-.21-.001-.417.04-.61.121-.192.081-.367.2-.513.35-.145.15-.26.328-.335.524-.075.195-.11.403-.103.612v.004c-.004.312.084.619.254.881.17.263.413.469.7.593s.604.16.912.104c.306-.055.59-.2.814-.417.187-.203.301-.462.326-.735h-1.515v-.644h2.166l.01.057c.02.108.03.217.03.326zm.616-2.336h2.59v.658h-1.89v1.19h1.722v.644h-1.722v1.19h1.89v.658h-2.59v-4.34zm.14.14v4.06h2.31v-.378h-1.89v-1.47h1.722v-.364h-1.722v-1.47h1.89v-.378h-2.31zm2.891-.14h3.06v.658h-1.205v3.682h-.679V5.532h-1.176v-.658zm.14.14v.378h1.176v3.682h.4V5.392h1.203v-.378h-2.779zm4.837-.14h.68v4.34h-.68v-4.34zm.14.14v4.06h.4v-4.06h-.4zm1.078-.14h3.024v.658h-1.169v3.682h-.679V5.532h-1.176v-.658zm.14.14v.378h1.176v3.682h.4V5.392h1.168v-.378h-2.744zm9.59-.14h.767l1.935 3.095V4.874h.68v4.34h-.67l-2.026-3.249v3.249h-.686v-4.34zm.14.14v4.06h.406V5.476l2.244 3.598h.451v-4.06h-.399v3.443l-2.153-3.443h-.549zm-4.18.776c.317-.315.745-.491 1.191-.491.447 0 .874.176 1.19.491l.003.003c.31.342.483.788.483 1.25 0 .463-.172.91-.483 1.252l-.002.002c-.316.315-.745.492-1.19.492-.447 0-.875-.177-1.191-.492l.05-.05-.052.048c-.311-.343-.483-.789-.483-1.251 0-.463.172-.909.483-1.251l.002-.003zm.101 2.41c.29.287.682.449 1.09.449.409 0 .8-.162 1.09-.45.288-.316.446-.728.446-1.155 0-.427-.158-.84-.446-1.156-.29-.288-.681-.45-1.09-.45-.408 0-.8.162-1.09.45-.287.317-.445.729-.445 1.156 0 .427.158.839.445 1.155z" transform="translate(-140 -84) translate(40 38.248) translate(0 46) translate(100.333)"/>
                        <path fill="url(#7m5gpiejsa)" fill-rule="nonzero" d="M7.308 5.278c-.228.274-.343.624-.322.98v15.484c-.021.356.094.706.322.98l.049.049 8.673-8.666v-.203L7.357 5.229l-.049.049z" transform="translate(-140 -84) translate(40 38.248) translate(0 46) translate(100.333)"/>
                        <path fill="url(#3ovpc5bdnb)" fill-rule="nonzero" d="M18.9 16.996l-2.87-2.891v-.203l2.87-2.898.063.035 3.437 1.953c.98.553.98 1.463 0 2.023l-3.423 1.946-.077.035z" transform="translate(-140 -84) translate(40 38.248) translate(0 46) translate(100.333)"/>
                        <path fill="url(#xitwerxhsc)" fill-rule="nonzero" d="M18.984 16.954L16.03 14l-8.722 8.722c.2.176.455.276.72.284.266.007.526-.078.736-.242l10.227-5.81" transform="translate(-140 -84) translate(40 38.248) translate(0 46) translate(100.333)"/>
                        <path fill="url(#ai4kv9i6sd)" fill-rule="nonzero" d="M18.984 11.046L8.757 5.236c-.21-.164-.47-.25-.736-.242-.265.008-.52.108-.72.284L16.03 14l2.954-2.954z" transform="translate(-140 -84) translate(40 38.248) translate(0 46) translate(100.333)"/>
                        <path fill="#0A0912" fill-rule="nonzero" d="M18.9 16.891L8.757 22.666c-.202.151-.448.233-.7.233-.252 0-.498-.082-.7-.233l-.049.049.049.049c.202.152.447.235.7.235.253 0 .498-.083.7-.235l10.227-5.81-.084-.063z" opacity=".2" transform="translate(-140 -84) translate(40 38.248) translate(0 46) translate(100.333)"/>
                        <path fill="#0A0912" fill-rule="nonzero" d="M7.308 22.624c-.228-.274-.343-.624-.322-.98v.105c-.021.356.094.706.322.98l.049-.049-.049-.056zM22.4 14.91l-3.5 1.981.063.063 3.437-1.946c.195-.092.362-.233.485-.41.123-.177.197-.383.215-.598-.04.195-.123.379-.244.536-.122.158-.278.286-.456.374z" opacity=".12" transform="translate(-140 -84) translate(40 38.248) translate(0 46) translate(100.333)"/>
                        <path fill="#FFF" fill-rule="nonzero" d="M8.757 5.334L22.4 13.09c.178.088.334.216.456.373.121.158.205.342.244.537-.018-.215-.092-.421-.215-.598s-.29-.319-.485-.41L8.757 5.236c-.98-.553-1.778-.091-1.778 1.029v.105C7 5.243 7.784 4.78 8.757 5.334z" opacity=".25" transform="translate(-140 -84) translate(40 38.248) translate(0 46) translate(100.333)"/>
                    </g>
                </g>
            </g>
        </g>
    </g>
</svg>
