<svg width="10" height="12" viewBox="0 0 10 12" xmlns="http://www.w3.org/2000/svg">
    <g fill="#FA407F" fill-rule="nonzero">
        <path d="m3.11 3.11 1.254-1.255v5.781c0 .328.218.546.545.546.327 0 .546-.218.546-.546V1.855l1.254 1.254a.527.527 0 0 0 .764 0 .527.527 0 0 0 0-.764L5.29.164c-.055-.055-.11-.11-.164-.11C5.073 0 4.964 0 4.91 0c-.054 0-.164 0-.218.055-.055 0-.11.054-.164.109L2.345 2.345a.527.527 0 0 0 0 .764.527.527 0 0 0 .764 0z"/>
        <path d="M9.273 5.455c-.328 0-.546.218-.546.545v4.364c0 .327-.218.545-.545.545H1.636c-.327 0-.545-.218-.545-.545V6c0-.327-.218-.545-.546-.545C.218 5.455 0 5.673 0 6v4.364C0 11.29.71 12 1.636 12h6.546c.927 0 1.636-.71 1.636-1.636V6c0-.327-.218-.545-.545-.545z"/>
    </g>
</svg>
